<svg width="72" height="72" viewBox="0 0 72 72" fill="none" xmlns="http://www.w3.org/2000/svg">
  <circle cx="36" cy="36" r="36" fill="#4680C2"/>
  <path d="M22 32C22 32 24 28 28 28H30C30 28 32 27 32 29V32C32 32 32 34 30 34H28C28 34 26 36 24 38L22 40C22 40 21 41 22 42C23 43 24 42 25 41L27 39C27 39 29 37 31 37H33C33 37 35 36 34 34L32 32C32 32 31 31 30 31H28C28 31 26 30 24 28L22 26C22 26 21 25 22 24C23 23 24 24 25 25L27 27C27 27 29 29 31 29H33C33 29 35 28 34 26L32 24C32 24 31 23 30 23H28C28 23 26 24 24 26L22 28V32Z" fill="white"/>
</svg>